# xmcd
#
# Track frame offsets:
#  150
#  900
#  1650
#  2400
#  3150
#  3900
#  4650
#  5400
#  6150
#  6900
#  7650
#  224607
#
# Disc length: 4440 seconds
#
# Revision: 8
# Processed by: cddbd v1.5.2PL0 Copyright (c) Steve Scherf et al.
# Submitted via: Collectorz.com_Music_Collector 6.11
#
DISCID=5c11560c
DTITLE=Enigma - VOYAGEUR
DYEAR=2003
DGENRE=New Age
TTITLE0=From East To Wedt
TTITLE1=VOYAGEUR
TTITLE2=Incognito
TTITLE3=Page Of Cups
TTITLE4=Boum-Boum
TTITLE5=Total Eclipse Of The Moon
TTITLE6=Look Of today
TTITLE7=In the Shadow,In the Light
TTITLE8=Weightless
TTITLE9=The Piano
TTITLE10=Following The Sun
TTITLE11=cccd
EXTD=
EXTT0=
EXTT1=
EXTT2=
EXTT3=
EXTT4=
EXTT5=
EXTT6=
EXTT7=
EXTT8=
EXTT9=
EXTT10=
EXTT11=
PLAYORDER=
